<?xml version="1.0" standalone="no"?>
<!DOCTYPE svg PUBLIC "-//W3C//DTD SVG 20010904//EN"
 "http://www.w3.org/TR/2001/REC-SVG-20010904/DTD/svg10.dtd">
<svg version="1.0" xmlns="http://www.w3.org/2000/svg"
 width="627.000000pt" height="627.000000pt" viewBox="0 0 627.000000 627.000000"
 preserveAspectRatio="xMidYMid meet">
<metadata>
Created by potrace 1.14, written by Peter Selinger 2001-2017
</metadata>
<g transform="translate(0.000000,627.000000) scale(0.100000,-0.100000)"
fill="#000000" stroke="none">
<path d="M3084 6243 c-21 -13 -48 -28 -59 -34 -11 -5 -34 -18 -50 -28 -17 -10
-138 -80 -270 -156 -132 -76 -284 -165 -338 -197 -55 -32 -101 -58 -103 -58
-2 0 -33 -18 -69 -40 -36 -22 -67 -40 -69 -40 -2 0 -33 -17 -67 -38 -35 -22
-84 -50 -109 -64 -46 -26 -67 -38 -175 -100 -152 -88 -403 -233 -435 -251 -19
-10 -39 -23 -45 -27 -5 -4 -30 -19 -55 -33 -56 -31 -187 -106 -405 -232 -93
-54 -199 -115 -235 -136 l-65 -37 -1 -1500 -2 -1501 95 -56 c53 -30 99 -55
104 -55 5 0 9 -4 9 -10 0 -5 4 -10 8 -10 7 0 119 -62 182 -100 8 -5 96 -56
195 -113 99 -57 405 -234 680 -392 275 -159 509 -293 520 -299 11 -6 27 -16
35 -22 8 -6 40 -25 70 -41 30 -17 95 -53 143 -82 49 -28 93 -51 98 -51 5 0 9
-3 9 -7 0 -5 10 -13 23 -19 12 -5 113 -63 225 -127 l202 -117 33 19 c38 22 91
53 347 201 107 62 213 123 235 135 22 13 96 56 165 95 152 88 181 105 223 129
59 34 411 237 512 296 55 32 116 67 135 78 19 10 134 77 255 147 121 70 240
139 265 153 25 14 131 74 235 135 l190 110 0 1502 0 1502 -200 115 c-110 64
-256 148 -325 188 -259 149 -726 419 -755 435 -16 9 -142 82 -280 162 -137 80
-358 207 -490 284 -132 76 -303 175 -381 219 -78 45 -148 84 -156 87 -8 3 -32
-5 -54 -19z"/>
</g>
</svg>
